<?xml version="1.0" encoding="utf-8"?>
<!-- Generator: Adobe Illustrator 17.1.0, SVG Export Plug-In . SVG Version: 6.00 Build 0)  -->
<!DOCTYPE svg PUBLIC "-//W3C//DTD SVG 1.1//EN" "http://www.w3.org/Graphics/SVG/1.1/DTD/svg11.dtd">
<svg version="1.1" id="Layer_1" xmlns="http://www.w3.org/2000/svg" xmlns:xlink="http://www.w3.org/1999/xlink" x="0px" y="0px"
	 viewBox="0 0 380 22.6" enable-background="new 0 0 380 22.6" xml:space="preserve">
<g>
	<path d="M22.5,6.7h-4.9V4.9H4.9v4h13c2.6,0,4.6,2.1,4.6,4.6v4.4c0,2.6-2.1,4.6-4.6,4.6H4.6c-2.6,0-4.6-2.1-4.6-4.6v-2.1h4.9v1.9
		h12.8v-4h-13C2.1,13.7,0,11.6,0,9.1V4.7C0,2.1,2.1,0,4.6,0h13.3c2.6,0,4.6,2.1,4.6,4.6L22.5,6.7L22.5,6.7z"/>
	<path d="M43.2,17.7h12.8V0h4.9v17.9c0,2.6-2.1,4.6-4.6,4.6H43c-2.6,0-4.6-2.1-4.6-4.6V0h4.9L43.2,17.7L43.2,17.7z"/>
	<path d="M94.7,0c2.6,0,4.7,2.1,4.7,4.6v5.8c0,2.6-2.1,4.6-4.7,4.6l-13,0c0.1,0,0.1,0.1,0.1,0.2c0,0-0.1,0-0.1,0v7.2h-4.9V0H94.7z
		 M81.6,10.2h12.8V4.9H81.6V10.2z"/>
	<path d="M134.9,4.9H119v4h12.8v4.9H119v4h15.9v4.9h-20.8V0.1h20.8V4.9z"/>
	<path d="M173,10.5c0,2.6-2.1,4.6-4.7,4.6h-0.2c1.6,1.9,3.3,3.9,4.9,5.8v1.6h-5l-6.2-7.4l-6.5,0c0.1,0,0.1,0.1,0.1,0.2
		c0,0-0.1,0-0.1,0v7.2h-4.9V0.1h17.8c2.6,0,4.7,2.1,4.7,4.6L173,10.5L173,10.5z M155.3,10.2h12.8V4.9h-12.8V10.2z"/>
	<path d="M211.2,6.7h-4.9V4.9h-12.8v4h13c2.6,0,4.6,2.1,4.6,4.6v4.4c0,2.6-2.1,4.6-4.6,4.6h-13.3c-2.6,0-4.6-2.1-4.6-4.6v-2.1h4.9
		v1.9h12.8v-4h-13c-2.6,0-4.6-2.1-4.6-4.6V4.7c0-2.6,2.1-4.6,4.6-4.6h13.3c2.6,0,4.6,2.1,4.6,4.6L211.2,6.7L211.2,6.7z"/>
	<path d="M248.4,0v4.9h-8.8v17.7h-4.9V4.9h-8.8V0H248.4z"/>
	<path d="M281.2,0c2.6,0,4.7,2.1,4.7,4.6v17.9h-4.9v-7.2h-12.8v7.2h-4.9V4.6c0-2.6,2.1-4.6,4.6-4.6H281.2z M280.9,10.4V4.9h-12.8
		v5.5H280.9z"/>
	<path d="M323.3,0v4.9h-8.8v17.7h-4.9V4.9h-8.8V0H323.3z"/>
	<path d="M338.2,0h4.9v22.5h-4.9V0z"/>
	<path d="M362.4,4.9v12.8H380v4.9h-17.8c-2.6,0-4.6-2.1-4.6-4.6V4.7c0-2.6,2.1-4.6,4.6-4.6H380V5L362.4,4.9L362.4,4.9z"/>
</g>
</svg>
