<?xml version="1.0" encoding="utf-8"?>
<!-- Generator: Adobe Illustrator 17.1.0, SVG Export Plug-In . SVG Version: 6.00 Build 0)  -->
<!DOCTYPE svg PUBLIC "-//W3C//DTD SVG 1.1//EN" "http://www.w3.org/Graphics/SVG/1.1/DTD/svg11.dtd">
<svg version="1.1" id="Layer_1" xmlns="http://www.w3.org/2000/svg" xmlns:xlink="http://www.w3.org/1999/xlink" x="0px" y="0px"
	 viewBox="0 0 923.5 923.4" enable-background="new 0 0 923.5 923.4" xml:space="preserve">
<path fill="#FFFFFF" d="M459.3,81l356.1,649.1H103.2L459.3,81z M802.2,723.1L459.3,98L116.4,723.1H802.2z"/>
<g>
	<line fill="#FFFFFF" x1="246.9" y1="373.8" x2="454.3" y2="11.8"/>
	
		<rect x="348.1" y="-15.8" transform="matrix(0.8677 0.4971 -0.4971 0.8677 142.2293 -148.7805)" fill="#FFFFFF" width="5" height="417.2"/>
</g>
<g>
	<line fill="#FFFFFF" x1="462.6" y1="11.8" x2="670" y2="373.8"/>
	
		<rect x="357.7" y="190.3" transform="matrix(0.4971 0.8677 -0.8677 0.4971 452.0693 -394.4285)" fill="#FFFFFF" width="417.2" height="5"/>
</g>
<g>
	<line fill="#FFFFFF" x1="623.5" y1="191.5" x2="830.9" y2="553.5"/>
	
		<rect x="518.6" y="370" transform="matrix(0.4971 0.8677 -0.8677 0.4971 688.8971 -443.6381)" fill="#FFFFFF" width="417.2" height="5"/>
</g>
<g>
	<line fill="#FFFFFF" x1="302.9" y1="191.5" x2="95.5" y2="553.5"/>
	
		<rect x="196.7" y="163.9" transform="matrix(0.8677 0.4971 -0.4971 0.8677 211.5356 -49.7467)" fill="#FFFFFF" width="5" height="417.2"/>
</g>
<polygon fill="#FFFFFF" points="443.4,8.7 458.5,0 473.6,8.7 473.6,26.2 458.5,34.9 443.4,26.2 "/>
<g>
	<line fill="#FFFFFF" x1="693.4" y1="411.9" x2="901.2" y2="773.6"/>
	
		<rect x="588.7" y="590.2" transform="matrix(0.4981 0.8671 -0.8671 0.4981 914.1416 -393.857)" fill="#FFFFFF" width="417.2" height="5"/>
</g>
<g>
	<line fill="#FFFFFF" x1="897" y1="780.8" x2="479.8" y2="779.1"/>
	
		<rect x="479.8" y="777.5" transform="matrix(1 4.075579e-03 -4.075579e-03 1 3.1845 -2.7992)" fill="#FFFFFF" width="417.2" height="5"/>
</g>
<polygon fill="#FFFFFF" points="909.3,765.8 909.2,783.2 894.1,791.9 879,783.1 879.1,765.6 894.3,757 "/>
<g>
	<line fill="#FFFFFF" x1="226.6" y1="411.9" x2="18.8" y2="773.6"/>
	
		<rect x="120.2" y="384.2" transform="matrix(0.8672 0.498 -0.498 0.8672 311.5024 17.6392)" fill="#FFFFFF" width="5" height="417.2"/>
</g>
<g>
	<line fill="#FFFFFF" x1="23" y1="780.8" x2="440.2" y2="779.1"/>
	
		<rect x="229.1" y="571.4" transform="matrix(3.906196e-03 1 -1 3.906196e-03 1010.6185 545.3384)" fill="#FFFFFF" width="5" height="417.2"/>
</g>
<polygon fill="#FFFFFF" points="10.7,765.8 10.8,783.2 25.9,791.9 41,783.1 40.9,765.6 25.7,757 "/>
<path fill="#FFFFFF" d="M467,443l-25.3-179.9L566,494.6l-91.7-0.2l25.3,179.9L375.3,442.8L467,443z"/>
<g>
	<path fill="#FFFFFF" d="M54.7,885H42.8v-4.5h-31v9.6h31.7c6.2,0,11.2,5,11.2,11.2v10.8c0,6.2-5.1,11.2-11.2,11.2H11.2
		c-6.2,0-11.2-5-11.2-11.2V907h11.8v4.5h31v-9.6H11.2c-6.2,0-11.2-5-11.2-11.2v-10.8c0-6.2,5-11.2,11.2-11.2h32.2
		c6.2,0,11.2,5,11.2,11.2V885z"/>
	<path fill="#FFFFFF" d="M104.9,911.5h31v-42.9h11.9v43.5c0,6.2-5.1,11.2-11.2,11.2h-32.2c-6.2,0-11.2-5-11.2-11.2v-43.5h11.8V911.5
		z"/>
	<path fill="#FFFFFF" d="M230,868.7c6.2,0,11.3,5.1,11.3,11.2v14.1c0,6.2-5.1,11.2-11.3,11.2l-31.6,0.1c0.2,0,0.2,0.2,0.2,0.5
		c0,0-0.2,0-0.2-0.1v17.6h-11.8v-54.6H230z M198.4,893.5h31v-13h-31V893.5z"/>
	<path fill="#FFFFFF" d="M327.8,880.5h-38.6v9.6h31.1v11.9h-31.1v9.6h38.6v11.9h-50.5v-54.7h50.5V880.5z"/>
	<path fill="#FFFFFF" d="M420.4,894.1c0,6.2-5.1,11.2-11.3,11.2h-0.5c3.9,4.6,8.1,9.4,11.9,14v4h-12.2l-15.1-18l-15.7,0.1
		c0.2,0,0.2,0.2,0.2,0.5c0,0-0.2,0-0.2-0.1v17.6h-11.8v-54.6H409c6.2,0,11.3,5.1,11.3,11.2V894.1z M377.4,893.5h31v-13h-31V893.5z"
		/>
	<path fill="#FFFFFF" d="M513.2,885h-11.9v-4.5h-31v9.6h31.7c6.2,0,11.2,5,11.2,11.2v10.8c0,6.2-5.1,11.2-11.2,11.2h-32.2
		c-6.2,0-11.2-5-11.2-11.2V907h11.8v4.5h31v-9.6h-31.5c-6.2,0-11.2-5-11.2-11.2v-10.8c0-6.2,5-11.2,11.2-11.2h32.2
		c6.2,0,11.2,5,11.2,11.2V885z"/>
	<path fill="#FFFFFF" d="M603.7,868.6v11.9h-21.4v42.9h-11.9v-42.9h-21.4v-11.9H603.7z"/>
	<path fill="#FFFFFF" d="M683.3,868.6c6.2,0,11.3,5,11.3,11.2v43.5h-11.9v-17.6h-31v17.6h-11.8v-43.5c0-6.2,5-11.2,11.2-11.2H683.3z
		 M682.7,893.9v-13.4h-31v13.4H682.7z"/>
	<path fill="#FFFFFF" d="M785.7,868.6v11.9h-21.4v42.9h-11.9v-42.9H731v-11.9H785.7z"/>
	<path fill="#FFFFFF" d="M821.9,868.6h11.9v54.7h-11.9V868.6z"/>
	<path fill="#FFFFFF" d="M880.7,880.5v31h42.8v11.9h-43.3c-6.2,0-11.2-5-11.2-11.2v-32.2c0-6.2,5-11.2,11.2-11.2h43.3v11.9H880.7z"
		/>
</g>
</svg>
