<?xml version="1.0" encoding="utf-8"?>
<!-- Generator: Adobe Illustrator 17.1.0, SVG Export Plug-In . SVG Version: 6.00 Build 0)  -->
<!DOCTYPE svg PUBLIC "-//W3C//DTD SVG 1.1//EN" "http://www.w3.org/Graphics/SVG/1.1/DTD/svg11.dtd">
<svg version="1.1" xmlns="http://www.w3.org/2000/svg" xmlns:xlink="http://www.w3.org/1999/xlink" x="0px" y="0px"
	 viewBox="0 0 485.8 74.1" enable-background="new 0 0 485.8 74.1" xml:space="preserve">
<g id="Layer_1">
	<path d="M41.9,7.6l33.3,60.7H8.6L41.9,7.6z M74,67.6L41.9,9.2L9.8,67.6H74z"/>
	<g>
		<line x1="22" y1="35" x2="41.4" y2="1.1"/>
		<rect x="31.5" y="-1.5" transform="matrix(-0.8677 -0.4971 0.4971 -0.8677 50.2732 49.4514)" width="0.5" height="39"/>
	</g>
	<g>
		<line x1="42.2" y1="1.1" x2="61.6" y2="35"/>
		<rect x="32.4" y="17.8" transform="matrix(-0.4971 -0.8677 0.8677 -0.4971 62.0411 72.0282)" width="39" height="0.5"/>
	</g>
	<g>
		<line x1="57.2" y1="17.9" x2="76.6" y2="51.8"/>
		<rect x="47.4" y="34.6" transform="matrix(-0.4971 -0.8677 0.8677 -0.4971 69.984 110.2587)" width="39" height="0.5"/>
	</g>
	<g>
		<line x1="27.3" y1="17.9" x2="7.9" y2="51.8"/>
		<rect x="17.3" y="15.3" transform="matrix(-0.8677 -0.4971 0.4971 -0.8677 15.466 73.8078)" width="0.5" height="39"/>
	</g>
	<polygon points="40.4,0.8 41.8,0 43.2,0.8 43.2,2.5 41.8,3.3 40.4,2.5 	"/>
	<g>
		<line x1="63.8" y1="38.5" x2="83.2" y2="72.4"/>
		<rect x="54" y="55.2" transform="matrix(-0.4981 -0.8671 0.8671 -0.4981 62.0464 146.8047)" width="39" height="0.5"/>
	</g>
	<g>
		<line x1="82.8" y1="73" x2="43.8" y2="72.9"/>
		<rect x="43.8" y="72.7" transform="matrix(-1 -4.075428e-03 4.075428e-03 -1 126.3378 146.1922)" width="39" height="0.5"/>
	</g>
	<polygon points="84,71.6 84,73.3 82.6,74.1 81.1,73.3 81.2,71.6 82.6,70.8 	"/>
	<g>
		<line x1="20.1" y1="38.5" x2="0.7" y2="72.4"/>
		<rect x="10.2" y="35.9" transform="matrix(-0.8672 -0.498 0.498 -0.8672 -8.2036 108.7253)" width="0.5" height="39"/>
	</g>
	<g>
		<line x1="1.1" y1="73" x2="40.1" y2="72.9"/>
		<rect x="1.1" y="72.7" width="39" height="0.5"/>
	</g>
	<polygon points="0,66.8 0,68.2 1.2,68.9 2.4,68.2 2.4,66.8 1.2,66.1 	"/>
	<path d="M42.6,41.4l-2.4-16.8l11.6,21.7l-8.6,0l2.4,16.8L34,41.4L42.6,41.4z"/>
</g>
<g id="Layer_2">
	<g>
		<path d="M128.3,32.5h-4.9v-1.9h-12.8v4h13c2.6,0,4.6,2.1,4.6,4.6v4.4c0,2.6-2.1,4.6-4.6,4.6h-13.3c-2.6,0-4.6-2.1-4.6-4.6v-2.1
			h4.9v1.9h12.8v-4h-13c-2.6,0-4.6-2.1-4.6-4.6v-4.4c0-2.6,2.1-4.6,4.6-4.6h13.3c2.6,0,4.6,2.1,4.6,4.6L128.3,32.5L128.3,32.5z"/>
		<path d="M149,43.4h12.8V25.7h4.9v17.9c0,2.6-2.1,4.6-4.6,4.6h-13.3c-2.6,0-4.6-2.1-4.6-4.6V25.7h4.9L149,43.4L149,43.4z"/>
		<path d="M200.4,25.7c2.6,0,4.7,2.1,4.7,4.6v5.8c0,2.6-2.1,4.6-4.7,4.6l-13,0c0.1,0,0.1,0.1,0.1,0.2c0,0-0.1,0-0.1,0v7.2h-4.9V25.7
			H200.4z M187.4,36h12.8v-5.3h-12.8V36z"/>
		<path d="M240.7,30.6h-15.9v4h12.8v4.9h-12.8v4h15.9v4.9h-20.8V25.8h20.8V30.6z"/>
		<path d="M278.8,36.2c0,2.6-2.1,4.6-4.7,4.6h-0.2c1.6,1.9,3.3,3.9,4.9,5.8v1.6h-5l-6.2-7.4l-6.5,0c0.1,0,0.1,0.1,0.1,0.2
			c0,0-0.1,0-0.1,0v7.2h-4.9V25.8h17.8c2.6,0,4.7,2.1,4.7,4.6L278.8,36.2L278.8,36.2z M261.1,36h12.8v-5.3h-12.8V36z"/>
		<path d="M317,32.5h-4.9v-1.9h-12.8v4h13c2.6,0,4.6,2.1,4.6,4.6v4.4c0,2.6-2.1,4.6-4.6,4.6h-13.3c-2.6,0-4.6-2.1-4.6-4.6v-2.1h4.9
			v1.9h12.8v-4h-13c-2.6,0-4.6-2.1-4.6-4.6v-4.4c0-2.6,2.1-4.6,4.6-4.6h13.3c2.6,0,4.6,2.1,4.6,4.6L317,32.5L317,32.5z"/>
		<path d="M354.2,25.7v4.9h-8.8v17.7h-4.9V30.6h-8.8v-4.9H354.2z"/>
		<path d="M387,25.7c2.6,0,4.7,2.1,4.7,4.6v17.9h-4.9V41H374v7.2h-4.9V30.3c0-2.6,2.1-4.6,4.6-4.6H387z M386.7,36.1v-5.5H374v5.5
			H386.7z"/>
		<path d="M429.1,25.7v4.9h-8.8v17.7h-4.9V30.6h-8.8v-4.9H429.1z"/>
		<path d="M444,25.7h4.9v22.5H444V25.7z"/>
		<path d="M468.2,30.6v12.8h17.6v4.9H468c-2.6,0-4.6-2.1-4.6-4.6V30.4c0-2.6,2.1-4.6,4.6-4.6h17.8v4.9L468.2,30.6L468.2,30.6z"/>
	</g>
</g>
</svg>
